<svg data-name="Component 2 – 1" xmlns="http://www.w3.org/2000/svg" width="151.998" height="149.255"><defs><clipPath id="a"><path data-name="Path 39" d="M0 0h149.255v152H0Z" transform="rotate(90 74.628 108.851)" fill="none"/></clipPath></defs><g data-name="CA icon male" transform="translate(-31.481 -34.223)" clip-path="url(#a)"><path data-name="Path 21" d="M182.801 34.224v147.843H31.281V34.224Z" fill="#00325f"/><path data-name="Path 22" d="m153.17 136.931 7.754 47.815L54.029 172.16l6.673-54.334 79.986 11.8Z" fill="#c8d0d0"/><path data-name="Path 23" d="M152.574 156.56a49.842 49.842 0 0 0-.236-23.965c-4.485-20.749-14.58-45.588-18.994-65.6l-55.36 1.518a129.478 129.478 0 0 0-17.275 49.317c-1.459 14.773 2.544 31.725 11.551 42.427 15.251 18.127 74.434 19.733 80.315-3.7Z" fill="#c8d0d0"/><path data-name="Path 24" d="M64.847 193.058c1.784 1.734 3.625 3.447 5.449 5.156l2.551-1.135-.542 3.019 1.3 1.213a113.176 113.176 0 0 0 8.507 7.543 80.928 80.928 0 0 0 18.68 10.669 120.8 120.8 0 0 0 42.4 8.353 83.5 83.5 0 0 0 12.385-.628 403.79 403.79 0 0 0-1.998-46.561c-3.411-16.821-14.6-23.144-29.363-28.368a35 35 0 0 0-27.147 1.88s-14.562-4.043-26.587.9c-4.5 1.852-19.228 7.369-25.848 25.585 2.045 18.46 13.981 6.583 20.213 12.374Z" fill="#f6f5f5"/><path data-name="Path 25" d="M149.459 216.86a108.633 108.633 0 0 0 17.053-17.48c.753-.96 3.211-7.975 3.925-8.964-22.769-41.752-46.145-36.575-46.145-36.575l11.383 46.166a202.32 202.32 0 0 1 13.784 16.853Z" fill="#f6f5f5"/><path data-name="Path 26" d="m68.391 81.79 9.417 50.066a33.478 33.478 0 0 0 14 20.535v.089a16.885 16.885 0 0 0 6.23 15.857l7.561 5.959 8.674-5.267a16.878 16.878 0 0 0 8.1-15.187l-.171-3.732a26.473 26.473 0 0 0 11.062-17.806c2.889-15.473 3.791-31.273 6.125-46.814 1.527-10.18 1.21-21.135-4.6-30.148a21.146 21.146 0 0 0-10.779-9.811c-17.877-5.318-39.251-3.349-49.292 11.2a38.391 38.391 0 0 0-6.327 25.056Z" fill="#f6ab94"/><path data-name="Path 27" d="m125.177 148.653-19.118 17.292 7.85 15.757 14.515-27.422Zm-19.118 17.292L94.308 153.21l-3.233-1.01-2.523-1.784-3.351.6 10.435 30.04Z" fill="#fff"/><path data-name="Path 28" d="m102.961 165.745 6.28.393-6.023 96.911-6.28-.393Z" fill="#fff"/><path data-name="Path 29" d="m126.054 205.606 9.509.535s-1.541 18.223-2.14 18.351l-8.535 1.9-8.271-2.855c-.578-.2-.071-18.48-.071-18.48l9.508.535" fill="#e5e5e5"/><path data-name="Path 30" d="M137.188 61.219c-1.756-8.371-6.223-16.871-16.7-20.039-8.325-2.523-26.377-2.8-34.148.8a25.263 25.263 0 0 0-15.072 19.81 139.145 139.145 0 0 0-7.354 29.813c-1.556 13.845-3.154 25.9-3.154 25.9.425-4.546 16.639-16.817 15.7-28.482-.714-8.831.439-13.245 3.294-14.241a13.327 13.327 0 0 1 7.3.211c4.207 1.238 5.463 4.043 13.085 4.007a36.657 36.657 0 0 0 9.377-3.886c4.4-2.059 9.021 3.493 12.921 1.941 7.244-2.88 8.41.357 10.091 2.658a56.924 56.924 0 0 0-1.52-6.359 14.951 14.951 0 0 1 6.18-12.132Zm15.012 70.313.189.714a3.381 3.381 0 0 0-.189-.714Z" fill="#f6f5f5"/><path data-name="Path 31" d="M145.294 93.559a141 141 0 0 0-7.525-32.721s-.228.125-.6.382a14.962 14.962 0 0 0-6.191 12.132 56.682 56.682 0 0 1 1.52 6.359 62.55 62.55 0 0 1 1.071 10.64c.221 22.352 16.646 35.683 18.609 41.181a288.2 288.2 0 0 1-6.88-37.973Z" fill="#f6f5f5"/><path data-name="Path 32" d="M104.895 59.399c-9.567.093-18.5.557-25.149 1.3-9.013 1-14.227 2.359-14.187 6.305a3.211 3.211 0 0 0 3.368 3.062 3.372 3.372 0 0 0 2.915-1.649c7.458-3.472 58.759-3.975 66.284-.653a3.365 3.365 0 0 0 2.947 1.591 3.211 3.211 0 0 0 3.3-3.126c-.02-2.523-.067-7.219-39.478-6.83Z" fill="#00325f"/><path data-name="Path 33" d="M104.634 53.323c-8.757.086-16.935.51-23.026 1.188-8.4.935-13.256 2.223-13.2 6.03a3.211 3.211 0 0 0 3.365 3.062 3.4 3.4 0 0 0 2.855-1.559c6.915-2.994 53.214-3.451 60.186-.592a3.4 3.4 0 0 0 2.894 1.5 3.211 3.211 0 0 0 3.308-3.129c-.029-2.562-.071-6.858-36.379-6.5Z" fill="#00325f"/><path data-name="Path 34" d="m79.731 74.775 17.706-4.46 7.311 5.823 7.608-6.726 17.549 7.233-1.585 9.634-31.358-.3Z" fill="#f6ab94"/><path data-name="Path 35" d="M74.982 116.977a20.175 20.175 0 0 0 8.921 6.005c.714.178.4 8.9 3.015 11.932a7.136 7.136 0 0 0 6.087 2.6l-.985-15.051a11.4 11.4 0 0 0 5.392-.086 9.3 9.3 0 0 1 8.981-.357 12.931 12.931 0 0 1 8.649.314 6.038 6.038 0 0 0 5.688-.5l-1.021 16a10.7 10.7 0 0 0 6.034-4.913c2.048-4.146 1.766-10.823 2.412-11.119a16.824 16.824 0 0 0 7.643-6.162 101.474 101.474 0 0 1-3.34 20.4c-3.6 11.583-10.616 18.555-22.123 20.254-11.178 1.632-25.255-2.221-30.379-13.144-1.791-3.782-4.014-21.056-4.974-26.173Zm21.053 10.195s-.842 11.932 9.9 12.236c11.5.328 10.922-12.389 10.922-12.389Z" fill="#00325f" fill-rule="evenodd"/><path data-name="Path 36" d="m110.768 105.255.849 6.423a2.726 2.726 0 0 1-2.619 3.083c-1.634.054-3.436-.136-4.011-1.124a.282.282 0 0 1 .285-.417c1.07.125 3.682-.385 4.935-7.968a.282.282 0 0 1 .56 0Z" fill="#cf8578" fill-rule="evenodd"/><path data-name="Path 37" d="m75.071 95.607-.046.289a19.939 19.939 0 0 0-.043 2.965c.075.714.043 2.141.125 2.855" fill="none"/><path data-name="Path 38" d="M130.283 126.483s3.768-9.8 3.707-30.516l2.88 9.823-1.639 14.987Zm-49.377-1.995a149.824 149.824 0 0 1-5.385-31.6l-3.925 6.027 3.875 20.338Z" fill="#00325f" fill-rule="evenodd"/></g></svg>